<svg xmlns="http://www.w3.org/2000/svg" data-name="Group 10136" width="133.946" height="58.978" viewBox="0 0 133.946 58.978">
	<g data-name="Group 10047">
		<path data-name="Path 5316" d="M518.171 364.633a7.567 7.567 0 0 1-1.766-.6 7.435 7.435 0 0 1-1.535-1.007l.875-1.148a6.276 6.276 0 0 0 2.023 1.207 7 7 0 0 0 2.4.4 4.908 4.908 0 0 0 2.912-.745 2.431 2.431 0 0 0 1.031-2.093v-.009a1.937 1.937 0 0 0-.448-1.339 2.751 2.751 0 0 0-1.157-.756 12.582 12.582 0 0 0-1.827-.462.348.348 0 0 0-.066-.015l-.075-.015-.292-.06a18.526 18.526 0 0 1-2.465-.609 3.56 3.56 0 0 1-1.575-1.077 3.144 3.144 0 0 1-.649-2.109v-.009a4.254 4.254 0 0 1 .609-2.32 3.826 3.826 0 0 1 1.775-1.464 7.069 7.069 0 0 1 2.808-.5 6.984 6.984 0 0 1 1.535.171 7.738 7.738 0 0 1 1.5.508 8.948 8.948 0 0 1 1.464.851l-.855 1.137a7.89 7.89 0 0 0-1.852-.99 5.243 5.243 0 0 0-1.792-.326 4.472 4.472 0 0 0-2.777.756 2.516 2.516 0 0 0-.987 2.124v.007a1.735 1.735 0 0 0 .493 1.3 3.03 3.03 0 0 0 1.223.71 19.253 19.253 0 0 0 2 .482l.086.02c.029.007.062.013.1.02a1.07 1.07 0 0 1 .116.026c.037.009.075.018.116.026a13.813 13.813 0 0 1 2.294.644 3.592 3.592 0 0 1 1.524 1.132 3.265 3.265 0 0 1 .609 2.078v.02a4.018 4.018 0 0 1-.635 2.289 3.94 3.94 0 0 1-1.836 1.449 7.582 7.582 0 0 1-2.9.5 9.62 9.62 0 0 1-2.004-.204z" transform="translate(-444.415 -348.818)" style="fill:#fff"></path>
		<path data-name="Path 5317" d="M586.167 382.632a2.941 2.941 0 0 1-1.007-2.384 2.883 2.883 0 0 1 .921-2.289 3.815 3.815 0 0 1 2.6-.811h3.472l.141 1.348h-3.6a2.359 2.359 0 0 0-1.555.459 1.752 1.752 0 0 0 .141 2.667 3.341 3.341 0 0 0 1.948.488 6.328 6.328 0 0 0 2.093-.271q.745-.272.745-.765l.211 1.368a2.8 2.8 0 0 1-.8.559 4.535 4.535 0 0 1-1.117.358 7.171 7.171 0 0 1-1.354.121 4.3 4.3 0 0 1-2.839-.848zm5.9-5.927a2.717 2.717 0 0 0-.678-1.968 2.564 2.564 0 0 0-1.928-.7 4.521 4.521 0 0 0-1.46.242 4.118 4.118 0 0 0-1.267.684l-1.056-.724a3.9 3.9 0 0 1 1.564-1.111 5.663 5.663 0 0 1 2.159-.4 4.963 4.963 0 0 1 2.225.458 3.178 3.178 0 0 1 1.409 1.328 4.255 4.255 0 0 1 .482 2.1v6.712h-1.449z" transform="translate(-501.814 -367.461)" style="fill:#fff"></path>
		<path data-name="Path 5318" d="M647.72 350.72h1.449v14.632h-1.449zm6.943 8.3a3 3 0 0 0-.73-2.153 2.708 2.708 0 0 0-2.058-.765 2.771 2.771 0 0 0-2 .679 2.542 2.542 0 0 0-.71 1.928l-.211-2.012a3.387 3.387 0 0 1 1.469-1.484 4.7 4.7 0 0 1 2.124-.458 3.244 3.244 0 0 1 2.632 1.111 4.771 4.771 0 0 1 .932 3.145v6.34h-1.449v-6.331z" transform="translate(-552.9 -349.488)" style="fill:#fff"></path>
		<path data-name="Path 5319" d="M708.747 382.632a2.941 2.941 0 0 1-1.007-2.384 2.883 2.883 0 0 1 .921-2.289 3.815 3.815 0 0 1 2.6-.811h3.472l.141 1.348h-3.6a2.359 2.359 0 0 0-1.555.459 1.752 1.752 0 0 0 .141 2.667 3.34 3.34 0 0 0 1.948.488 6.329 6.329 0 0 0 2.093-.271q.746-.272.745-.765l.211 1.368a2.8 2.8 0 0 1-.8.559 4.534 4.534 0 0 1-1.117.358 7.169 7.169 0 0 1-1.353.121 4.3 4.3 0 0 1-2.84-.848zm5.9-5.927a2.717 2.717 0 0 0-.679-1.968 2.564 2.564 0 0 0-1.927-.7 4.521 4.521 0 0 0-1.46.242 4.117 4.117 0 0 0-1.267.684l-1.056-.724a3.9 3.9 0 0 1 1.564-1.111 5.663 5.663 0 0 1 2.159-.4 4.962 4.962 0 0 1 2.225.458 3.177 3.177 0 0 1 1.409 1.328 4.256 4.256 0 0 1 .482 2.1v6.712h-1.449z" transform="translate(-601.913 -367.461)" style="fill:#fff"></path>
		<path data-name="Path 5320" d="M770.3 372.872h1.449v10.446H770.3zm5.339 1.368a3.423 3.423 0 0 0-1.132-.171 2.8 2.8 0 0 0-2.032.7 2.567 2.567 0 0 0-.724 1.937l-.211-2.012a4.067 4.067 0 0 1 1.5-1.454 4.127 4.127 0 0 1 2.038-.519 3.871 3.871 0 0 1 1.293.205 2.9 2.9 0 0 1 1.011.609l-.935 1.207a2.1 2.1 0 0 0-.808-.502z" transform="translate(-652.999 -367.453)" style="fill:#fff"></path>
		<path data-name="Path 5321" d="M816.517 382.632a2.942 2.942 0 0 1-1.007-2.384 2.883 2.883 0 0 1 .921-2.289 3.815 3.815 0 0 1 2.6-.811h3.469l.141 1.348h-3.6a2.359 2.359 0 0 0-1.555.459 1.752 1.752 0 0 0 .141 2.667 3.34 3.34 0 0 0 1.948.488 6.329 6.329 0 0 0 2.093-.271q.746-.272.745-.765l.211 1.368a2.8 2.8 0 0 1-.8.559 4.535 4.535 0 0 1-1.117.358 7.172 7.172 0 0 1-1.354.121 4.3 4.3 0 0 1-2.836-.848zm5.9-5.927a2.717 2.717 0 0 0-.679-1.968 2.564 2.564 0 0 0-1.927-.7 4.522 4.522 0 0 0-1.46.242 4.116 4.116 0 0 0-1.267.684l-1.056-.724a3.9 3.9 0 0 1 1.564-1.111 5.663 5.663 0 0 1 2.159-.4 4.963 4.963 0 0 1 2.225.458 3.177 3.177 0 0 1 1.408 1.328 4.254 4.254 0 0 1 .482 2.1v6.712h-1.449z" transform="translate(-689.918 -367.461)" style="fill:#fff"></path>
		<path data-name="Path 5322" d="M519.81 452.452h1.449v14.632h-1.449zm1.388 13.284h3.31a4.3 4.3 0 0 0 3.044-.952 3.747 3.747 0 0 0 1.01-2.863v-4.308a3.754 3.754 0 0 0-1.01-2.863 4.3 4.3 0 0 0-3.044-.952H521.2v-1.348h3.25a7.293 7.293 0 0 1 3.1.58 3.888 3.888 0 0 1 1.852 1.746 6.227 6.227 0 0 1 .614 2.918v4.147a6.121 6.121 0 0 1-.62 2.912 3.939 3.939 0 0 1-1.856 1.746 7.263 7.263 0 0 1-3.1.583h-3.24v-1.346z" transform="translate(-448.449 -432.56)" style="fill:#fff"></path>
		<path data-name="Path 5323" d="M592.914 484.669a3.652 3.652 0 0 1-1.564-1.6 5.487 5.487 0 0 1-.539-2.531v-1.177a6.141 6.141 0 0 1 .519-2.646 3.709 3.709 0 0 1 1.5-1.671 4.653 4.653 0 0 1 2.375-.574 4.214 4.214 0 0 1 2.234.563 3.6 3.6 0 0 1 1.414 1.645 6.3 6.3 0 0 1 .488 2.6v1.2H591.8v-1.308h6.2v-.1a3.58 3.58 0 0 0-.73-2.4 2.564 2.564 0 0 0-2.058-.851 2.86 2.86 0 0 0-2.254.9 3.7 3.7 0 0 0-.794 2.536v1.328a3.322 3.322 0 0 0 .846 2.43 3.189 3.189 0 0 0 2.384.86 3.629 3.629 0 0 0 1.434-.3 4 4 0 0 0 1.264-.855l.987.946a5.55 5.55 0 0 1-1.731 1.152 4.985 4.985 0 0 1-1.951.407 5.161 5.161 0 0 1-2.483-.554z" transform="translate(-506.428 -450.542)" style="fill:#fff"></path>
		<path data-name="Path 5324" d="M651.307 485.042a6.7 6.7 0 0 1-1.484-.488 5.387 5.387 0 0 1-1.223-.776l.835-1.016a7.792 7.792 0 0 0 1.772.891 5.334 5.334 0 0 0 1.74.317 4.374 4.374 0 0 0 2.32-.514 1.62 1.62 0 0 0 .82-1.449 1.28 1.28 0 0 0-.4-1.027 2.157 2.157 0 0 0-1-.462 14.908 14.908 0 0 0-1.68-.2c-.068-.007-.136-.011-.205-.015s-.139-.007-.205-.015a.6.6 0 0 1-.081-.006.591.591 0 0 0-.081-.005 9.653 9.653 0 0 1-1.731-.3 2.339 2.339 0 0 1-1.163-.756 2.414 2.414 0 0 1-.468-1.6 2.936 2.936 0 0 1 .488-1.711 3.031 3.031 0 0 1 1.429-1.077 6.156 6.156 0 0 1 2.26-.372 7.178 7.178 0 0 1 2.681.528 6 6 0 0 1 1.152.618l-.834 1a7.035 7.035 0 0 0-1.55-.669 5.371 5.371 0 0 0-1.509-.237 3.613 3.613 0 0 0-2.043.493 1.585 1.585 0 0 0-.724 1.388 1.109 1.109 0 0 0 .392.932 2.145 2.145 0 0 0 .992.407 15.892 15.892 0 0 0 1.645.161.721.721 0 0 1 .086.005.72.72 0 0 0 .086.005h.061a.23.23 0 0 1 .06.009 9.008 9.008 0 0 1 1.867.271 2.534 2.534 0 0 1 1.293.834 2.735 2.735 0 0 1 .523 1.8 2.852 2.852 0 0 1-.523 1.731 3.233 3.233 0 0 1-1.53 1.091 6.934 6.934 0 0 1-2.425.378 7.793 7.793 0 0 1-1.643-.164z" transform="translate(-553.619 -450.534)" style="fill:#fff"></path>
		<path data-name="Path 5325" d="M711.444 484.669a3.652 3.652 0 0 1-1.564-1.6 5.487 5.487 0 0 1-.539-2.531v-1.177a6.141 6.141 0 0 1 .519-2.646 3.709 3.709 0 0 1 1.5-1.671 4.653 4.653 0 0 1 2.375-.574 4.214 4.214 0 0 1 2.234.563 3.6 3.6 0 0 1 1.414 1.645 6.3 6.3 0 0 1 .488 2.6v1.2h-7.547v-1.308h6.2v-.1a3.58 3.58 0 0 0-.73-2.4 2.564 2.564 0 0 0-2.058-.851 2.86 2.86 0 0 0-2.254.9 3.7 3.7 0 0 0-.794 2.536v1.328a3.323 3.323 0 0 0 .845 2.43 3.19 3.19 0 0 0 2.384.86 3.629 3.629 0 0 0 1.434-.3 4 4 0 0 0 1.264-.855l.987.946a5.55 5.55 0 0 1-1.731 1.152 4.985 4.985 0 0 1-1.951.407 5.156 5.156 0 0 1-2.476-.554z" transform="translate(-603.219 -450.542)" style="fill:#fff"></path>
		<path data-name="Path 5326" d="M771.23 474.612h1.449v10.446h-1.449zm5.339 1.368a3.423 3.423 0 0 0-1.132-.171 2.8 2.8 0 0 0-2.032.7 2.567 2.567 0 0 0-.724 1.937l-.211-2.012a4.067 4.067 0 0 1 1.5-1.454 4.126 4.126 0 0 1 2.037-.519 3.871 3.871 0 0 1 1.293.205 2.9 2.9 0 0 1 1.01.609l-.935 1.207a2.087 2.087 0 0 0-.806-.502z" transform="translate(-653.759 -450.534)" style="fill:#fff"></path>
		<path data-name="Path 5327" d="M814.8 461.751h4.71V463h-4.71zm1.665 9.8a3.141 3.141 0 0 1-.589-2.069V458.71h1.449v10.79a1.576 1.576 0 0 0 .3 1.036 1.1 1.1 0 0 0 .9.363h.987v1.348h-1.188a2.285 2.285 0 0 1-1.859-.701z" transform="translate(-689.338 -437.672)" style="fill:#fff"></path>
		<path data-name="Path 5328" d="M519.81 554.192h1.449v14.632h-1.449zm1.388 13.284h3.31a4.3 4.3 0 0 0 3.044-.952 3.747 3.747 0 0 0 1.01-2.863v-4.308a3.754 3.754 0 0 0-1.01-2.863 4.3 4.3 0 0 0-3.044-.952H521.2v-1.348h3.25a7.323 7.323 0 0 1 3.1.578 3.888 3.888 0 0 1 1.852 1.746 6.227 6.227 0 0 1 .614 2.918v4.147a6.12 6.12 0 0 1-.62 2.912 3.939 3.939 0 0 1-1.856 1.746 7.263 7.263 0 0 1-3.1.583h-3.24v-1.344z" transform="translate(-448.449 -515.641)" style="fill:#fff"></path>
		<path data-name="Path 5329" d="M593.917 583.379a3 3 0 0 0 .715 2.138 2.643 2.643 0 0 0 2.023.759 2.747 2.747 0 0 0 2.008-.7 2.619 2.619 0 0 0 .71-1.962l.141 2.184a3.139 3.139 0 0 1-1.264 1.3 4.18 4.18 0 0 1-2.168.523 3.308 3.308 0 0 1-2.672-1.111 4.713 4.713 0 0 1-.941-3.134v-6.346h1.449v6.349zm5.454-6.349h1.44v10.446h-1.44z" transform="translate(-507.783 -534.293)" style="fill:#fff"></path>
		<path data-name="Path 5330" d="M654.96 554.2h1.449v14.632h-1.449zm2.557 14.366a2.523 2.523 0 0 1-1.247-1.374l.141-2.184a2.825 2.825 0 0 0 .323 1.313 2.624 2.624 0 0 0 .926 1.022 2.526 2.526 0 0 0 1.409.392 2.611 2.611 0 0 0 2.023-.779 3.117 3.117 0 0 0 .715-2.188V562.5a3.2 3.2 0 0 0-.715-2.228 2.589 2.589 0 0 0-2.023-.79 2.559 2.559 0 0 0-1.409.387 2.635 2.635 0 0 0-.926 1 2.735 2.735 0 0 0-.323 1.288l-.211-2.012a3.315 3.315 0 0 1 1.443-1.464 4.65 4.65 0 0 1 2.1-.448 3.484 3.484 0 0 1 1.9.5 3.124 3.124 0 0 1 1.2 1.454 5.8 5.8 0 0 1 .413 2.305v2.274a5.569 5.569 0 0 1-.422 2.274 3.134 3.134 0 0 1-1.238 1.443 3.671 3.671 0 0 1-1.951.5 4.844 4.844 0 0 1-2.128-.417z" transform="translate(-558.813 -515.65)" style="fill:#fff"></path>
		<path data-name="Path 5331" d="M714.347 586.112a2.941 2.941 0 0 1-1.007-2.384 2.883 2.883 0 0 1 .921-2.289 3.814 3.814 0 0 1 2.6-.811h3.472l.141 1.348h-3.6a2.359 2.359 0 0 0-1.555.458 1.752 1.752 0 0 0 .141 2.667 3.341 3.341 0 0 0 1.948.488 6.328 6.328 0 0 0 2.093-.271q.746-.272.745-.765l.211 1.368a2.8 2.8 0 0 1-.8.559 4.54 4.54 0 0 1-1.117.358 7.172 7.172 0 0 1-1.353.121 4.3 4.3 0 0 1-2.84-.847zm5.9-5.927a2.717 2.717 0 0 0-.679-1.968 2.564 2.564 0 0 0-1.928-.7 4.519 4.519 0 0 0-1.46.242 4.115 4.115 0 0 0-1.267.684l-1.056-.724a3.905 3.905 0 0 1 1.564-1.111 5.665 5.665 0 0 1 2.159-.4 4.963 4.963 0 0 1 2.225.458A3.178 3.178 0 0 1 721.21 578a4.26 4.26 0 0 1 .482 2.1v6.712h-1.449z" transform="translate(-606.486 -533.623)" style="fill:#fff"></path>
		<path data-name="Path 5332" d="M777.54 554.2h1.449v1.449h-1.449zm0 4.187h1.449v10.446h-1.449z" transform="translate(-658.912 -515.65)" style="fill:#fff"></path>
	</g>
	<g data-name="Group 10091">
		<g data-name="Group 10049">
			<g data-name="Group 10048">
				<path data-name="Path 5333" d="M181.811 579.524A29.427 29.427 0 0 1 157.3 566.4a.716.716 0 0 1 .567-1.111c3.521-.141 6.953-.141 9.449-.139h.367a33.909 33.909 0 0 0 12.363-2.366 37.606 37.606 0 0 1 13.7-2.557 44.332 44.332 0 0 1 13.988 2.076.716.716 0 0 1 .407 1 29.332 29.332 0 0 1-26.33 16.221zm-22.58-12.847a28.036 28.036 0 0 0 47.236-3.272 44.49 44.49 0 0 0-12.732-1.744 36.367 36.367 0 0 0-13.235 2.479 35.537 35.537 0 0 1-12.827 2.445h-.367c-2.17-.009-5.051-.002-8.075.092z" transform="translate(-152.322 -520.574)" style="fill:#fff"></path>
			</g>
		</g>
		<g data-name="Group 10051">
			<g data-name="Group 10050">
				<path data-name="Path 5334" d="M202.527 617.492a29.4 29.4 0 0 1-19.747-7.6.714.714 0 0 1 .479-1.245 6.985 6.985 0 0 0 .853-.315c2.586-1.044 8.638-3.49 18.619 1.007 3.708 1.673 7.418.686 11.006-.27 3.043-.809 5.915-1.574 8.611-.69a.716.716 0 0 1 .264 1.2 29.354 29.354 0 0 1-20.085 7.913zm-17.848-7.846a28.032 28.032 0 0 0 35.913-.183 18.748 18.748 0 0 0-6.489.988c-3.651.972-7.789 2.073-11.961.191-9.381-4.227-15.03-1.979-17.464-.996z" transform="translate(-173.038 -558.542)" style="fill:#fff"></path>
			</g>
		</g>
		<g data-name="Group 10054">
			<g data-name="Group 10052">
				<path data-name="Path 5335" d="M279.979 485.767a4.738 4.738 0 0 0-9.39-.9l-.079.238 5.746 3.556h.358l3.49-2.593z" transform="translate(-244.871 -455.899)" style="fill:#fff"></path>
			</g>
			<g data-name="Group 10053">
				<path data-name="Path 5336" d="M273.433 486.194h-.358a.72.72 0 0 1-.376-.106l-5.746-3.556a.715.715 0 0 1-.3-.831l.064-.2a5.453 5.453 0 0 1 10.8.934l.073.178a.711.711 0 0 1-.235.844l-3.49 2.593a.719.719 0 0 1-.432.144zm-5.275-4.6 5.075 3.142 2.85-2.118v-.037a4.023 4.023 0 0 0-7.923-.987zm9.355.987z" transform="translate(-241.691 -452.714)" style="fill:#fff"></path>
			</g>
		</g>
		<g data-name="Group 10056">
			<g data-name="Group 10055">
				<path data-name="Path 5337" d="M160.727 502.755a29.467 29.467 0 0 1-29.368-27.121.714.714 0 0 1 .339-.666c3.965-2.432 11.281-6.511 15.71-6.511 3.972 0 8.075 2.751 11.373 4.963 1.651 1.106 3.356 2.25 4.046 2.25.636 0 2.408-1.555 3.971-2.929 3.307-2.905 7.422-6.522 11.446-6.522 2.646 0 6.551 1.762 11.609 5.24a.713.713 0 0 1 .31.559c.018.422.029.847.029 1.273a29.467 29.467 0 0 1-29.465 29.463zm-27.906-26.8a28.032 28.032 0 0 0 55.937-2.665c0-.286-.006-.572-.015-.856-4.605-3.132-8.233-4.785-10.5-4.785-3.485 0-7.541 3.564-10.5 6.164-2.456 2.159-3.791 3.285-4.913 3.285s-2.683-1.045-4.842-2.492c-2.971-1.992-7.039-4.719-10.577-4.719-3.953.001-10.682 3.7-14.59 6.072z" transform="translate(-131.238 -443.805)" style="fill:#fff"></path>
			</g>
		</g>
		<g data-name="Group 10061">
			<g data-name="Group 10058">
				<g data-name="Group 10057">
					<path data-name="Path 5338" d="M312.655 482.362c-4.948 0-12.915-5.146-13.282-5.386a.715.715 0 0 1 .391-1.315c.636 0 2.408-1.555 3.971-2.929 3.307-2.905 7.422-6.522 11.446-6.522a.715.715 0 0 1 .169 1.41c-1.088.262-1.753.651-1.977 1.155-.413.928.491 2.6 1.366 4.213 1.308 2.414 2.789 5.152 1.443 7.587a3.32 3.32 0 0 1-2.206 1.636 5.337 5.337 0 0 1-1.321.151zm-11.318-5.847c3.22 1.926 9.328 5.053 12.288 4.312a1.923 1.923 0 0 0 1.3-.941c.968-1.751-.26-4.02-1.449-6.215-1.025-1.893-2-3.686-1.519-5.2a34.3 34.3 0 0 0-7.283 5.337 30.829 30.829 0 0 1-3.336 2.707zm14.215 3.717z" transform="translate(-268.175 -443.797)" style="fill:#fff"></path>
				</g>
			</g>
			<g data-name="Group 10060">
				<g data-name="Group 10059">
					<path data-name="Path 5339" d="M152.065 490.628c-2.514 0-6.679-1.19-13.579-5.21a.714.714 0 0 1-.005-1.232c4.435-2.626 10.542-5.755 14.457-5.755a.715.715 0 0 1 .381 1.32 1.43 1.43 0 0 0-.58.959 2.989 2.989 0 0 0 1.053 2.175c2.137 2.285 2.773 4.955 1.544 6.494a3.909 3.909 0 0 1-3.271 1.249zm-11.791-5.834c8.579 4.822 12.871 5.036 13.942 3.694.75-.941.117-2.929-1.471-4.627a4.208 4.208 0 0 1-1.423-3.351 2.708 2.708 0 0 1 .114-.5c-2.687.49-6.55 2.138-11.162 4.784z" transform="translate(-136.769 -453.776)" style="fill:#fff"></path>
				</g>
			</g>
		</g>
		<g data-name="Group 10063">
			<g data-name="Group 10062">
				<path data-name="Path 5340" d="M160.2 402.978a29.489 29.489 0 1 1 29.489-29.489 29.522 29.522 0 0 1-29.489 29.489zm0-57.5a28.006 28.006 0 1 0 28.007 28.005 28.037 28.037 0 0 0-28.007-28.001z" transform="translate(-130.71 -344)" style="fill:#fff"></path>
			</g>
		</g>
		<g data-name="Group 10090">
			<g data-name="Group 10065">
				<g data-name="Group 10064">
					<path data-name="Path 5341" d="m258.128 398.059-2.518-.464c2.724-3.69 7.683-.679 9.178 1.693l-2.08-.384-.461-.974.02.894-1.747-.321-.06-1.043-.261.985-1.458-.269-.069-1.186z" transform="rotate(-31 -553.609 632.312)" style="fill:#fff"></path>
				</g>
			</g>
			<g data-name="Group 10067">
				<g data-name="Group 10066">
					<path data-name="Path 5342" d="M264.6 399.187h-.014l-2.08-.384a.068.068 0 0 1-.052-.04l-.318-.67.011.556a.072.072 0 0 1-.026.057.078.078 0 0 1-.06.017l-1.747-.321a.07.07 0 0 1-.057-.066l-.034-.6-.146.55a.069.069 0 0 1-.083.052l-1.458-.269a.07.07 0 0 1-.057-.066l-.054-.919-.421.836a.071.071 0 0 1-.077.037l-2.518-.464a.076.076 0 0 1-.054-.043.074.074 0 0 1 .009-.069 4.017 4.017 0 0 1 3.538-1.753 7.957 7.957 0 0 1 5.761 3.449.075.075 0 0 1 0 .077.081.081 0 0 1-.063.033zm-2.031-.518 1.879.347a7.951 7.951 0 0 0-5.554-3.245 3.863 3.863 0 0 0-3.346 1.6l2.352.433.518-1.028a.068.068 0 0 1 .077-.037.073.073 0 0 1 .057.066l.066 1.131 1.338.246.243-.919a.072.072 0 0 1 .14.014l.057.988 1.6.3-.017-.8a.074.074 0 0 1 .054-.072.07.07 0 0 1 .08.04z" transform="rotate(-31 -553.394 631.897)" style="fill:#fff"></path>
				</g>
			</g>
			<g data-name="Group 10069">
				<g data-name="Group 10068">
					<path data-name="Path 5343" d="m234.578 380.141-1.868-1.916c4.257-.547 7.978 1.773 6.56 6.726l-2.784-2.853.415-.994-.679.722-1.349-1.384.653-.831z" transform="rotate(-23 -780.771 738.822)" style="fill:#fff"></path>
				</g>
			</g>
			<g data-name="Group 10071">
				<g data-name="Group 10070">
					<path data-name="Path 5344" d="M239.1 384.836a.072.072 0 0 1-.052-.023l-2.784-2.853a.07.07 0 0 1-.014-.077l.264-.63-.41.435c-.014.014-.026.029-.052.023a.072.072 0 0 1-.052-.023l-1.349-1.384a.07.07 0 0 1-.006-.095l.433-.55-.633.355a.07.07 0 0 1-.086-.011l-1.868-1.916a.072.072 0 0 1-.017-.075.077.077 0 0 1 .057-.049c2.475-.318 4.678.338 5.9 1.753a5.252 5.252 0 0 1 .745 5.064.065.065 0 0 1-.052.049.075.075 0 0 1-.024.007zm-2.7-2.942 2.664 2.73a5.061 5.061 0 0 0-.748-4.812 6.373 6.373 0 0 0-5.623-1.722l1.73 1.773.9-.5a.071.071 0 0 1 .089.017.073.073 0 0 1 0 .092l-.613.782 1.255 1.286.627-.667a.074.074 0 0 1 .092-.011.072.072 0 0 1 .026.089z" transform="rotate(-23 -780.402 738.3)" style="fill:#fff"></path>
				</g>
			</g>
			<g data-name="Group 10073">
				<g data-name="Group 10072">
					<path data-name="Path 5345" d="M228.226 392.243a14.273 14.273 0 0 0-2.166.089c2.068-2.9 7.545-2.664 8.465 1.349a16.973 16.973 0 0 0-3.859-1.169l.192-.725-.521.667a16.379 16.379 0 0 0-1.756-.195l.18-.687z" transform="rotate(-31 -557.093 592.34)" style="fill:#fff"></path>
				</g>
			</g>
			<g data-name="Group 10075">
				<g data-name="Group 10074">
					<path data-name="Path 5346" d="M234.342 393.565a.117.117 0 0 1-.032-.006 17.006 17.006 0 0 0-3.841-1.163.07.07 0 0 1-.049-.031.068.068 0 0 1-.009-.057l.1-.39-.309.392a.071.071 0 0 1-.069.026 16.555 16.555 0 0 0-1.747-.195.074.074 0 0 1-.054-.029.075.075 0 0 1-.011-.06l.094-.358-.321.4a.061.061 0 0 1-.057.026 14.332 14.332 0 0 0-2.154.089.077.077 0 0 1-.072-.034.069.069 0 0 1 0-.077 5.149 5.149 0 0 1 5.171-1.876 4.191 4.191 0 0 1 3.42 3.251.071.071 0 0 1-.026.072.053.053 0 0 1-.034.02zm-3.773-1.3a18.1 18.1 0 0 1 3.667 1.1 4.051 4.051 0 0 0-3.274-3 5.1 5.1 0 0 0-4.927 1.687 13.953 13.953 0 0 1 1.977-.072l.51-.645a.074.074 0 0 1 .089-.02.07.07 0 0 1 .037.083l-.158.6c.541.034 1.091.095 1.633.183l.5-.633a.074.074 0 0 1 .089-.02.07.07 0 0 1 .037.083z" transform="rotate(-31 -556.847 591.918)" style="fill:#fff"></path>
				</g>
			</g>
			<g data-name="Group 10077">
				<g data-name="Group 10076">
					<path data-name="Path 5347" d="M234.452 400.742a4.9 4.9 0 0 1 4.194-.02l-2.882 1.61-.533-.579.072.836-1.8 1-.054-.9-.289 1.091-1.323.739a5.917 5.917 0 0 1 2.612-3.781" transform="rotate(-31 -567.727 603.296)" style="fill:#fff"></path>
				</g>
			</g>
			<g data-name="Group 10079">
				<g data-name="Group 10078">
					<path data-name="Path 5348" d="M231.678 404.421a.084.084 0 0 1-.043-.014.07.07 0 0 1-.029-.072 5.99 5.99 0 0 1 2.647-3.833 5.013 5.013 0 0 1 4.26-.02.08.08 0 0 1 .04.063.071.071 0 0 1-.037.063l-2.882 1.61a.07.07 0 0 1-.089-.014l-.39-.424.054.627a.07.07 0 0 1-.037.069l-1.8 1a.073.073 0 0 1-.069 0 .072.072 0 0 1-.037-.057l-.029-.455-.175.659a.066.066 0 0 1-.034.043l-1.323.739a.036.036 0 0 1-.027.016zm2.641-3.79a5.69 5.69 0 0 0-2.535 3.578l1.154-.647.281-1.06a.069.069 0 0 1 .077-.052.068.068 0 0 1 .063.066l.049.785 1.656-.925-.066-.791a.069.069 0 0 1 .043-.072.07.07 0 0 1 .08.017l.493.536 2.71-1.513a4.838 4.838 0 0 0-4 .077zm-.034-.063z" transform="rotate(-31 -567.497 602.908)" style="fill:#fff"></path>
				</g>
			</g>
			<g data-name="Group 10081">
				<g data-name="Group 10080">
					<path data-name="Path 5349" d="m257.9 405.123-2.29-3.223c3.953.069 5.715 4.228 4.907 6.892l-1.378-1.936.544-1.12-.8.762-.768-1.077.332-.836z" transform="rotate(-31 -561.37 634.465)" style="fill:#fff"></path>
				</g>
			</g>
			<g data-name="Group 10083">
				<g data-name="Group 10082">
					<path data-name="Path 5350" d="M260.332 408.692a.071.071 0 0 1-.057-.029l-1.378-1.937a.071.071 0 0 1-.006-.072l.372-.768-.516.49a.078.078 0 0 1-.057.02.072.072 0 0 1-.052-.029l-.768-1.077a.074.074 0 0 1-.009-.069l.206-.518-.3.3a.068.068 0 0 1-.057.02.072.072 0 0 1-.052-.029l-2.292-3.223a.077.077 0 0 1-.006-.074.073.073 0 0 1 .066-.037 4.987 4.987 0 0 1 4.025 2.094 5.783 5.783 0 0 1 .948 4.89.067.067 0 0 1-.057.049zm-1.295-2.014 1.266 1.782a5.767 5.767 0 0 0-.968-4.623 4.831 4.831 0 0 0-3.767-2.031l2.16 3.036.484-.481a.069.069 0 0 1 .089-.009.068.068 0 0 1 .026.086l-.318.8.7.977.742-.7a.073.073 0 0 1 .092-.006.071.071 0 0 1 .023.089z" transform="rotate(-31 -561.153 634.051)" style="fill:#fff"></path>
				</g>
			</g>
			<g data-name="Group 10085">
				<g data-name="Group 10084">
					<path data-name="Path 5351" d="m251.648 405.733.645-3.833s2.993 5.136-1.332 7.943l.3-1.756.516-.083-.481-.126.3-1.8.645.158z" transform="rotate(-31 -563.03 628.483)" style="fill:#fff"></path>
				</g>
			</g>
			<g data-name="Group 10087">
				<g data-name="Group 10086">
					<path data-name="Path 5352" d="M250.768 409.731a.066.066 0 0 1-.04-.011.07.07 0 0 1-.031-.072l.295-1.756a.073.073 0 0 1 .06-.06l.18-.029-.152-.04a.073.073 0 0 1-.052-.08l.3-1.8a.07.07 0 0 1 .032-.049.067.067 0 0 1 .057-.009l.352.086-.358-.307a.067.067 0 0 1-.023-.066l.644-3.833a.07.07 0 0 1 .057-.057.069.069 0 0 1 .074.034c.032.052 2.976 5.228-1.355 8.038a.1.1 0 0 1-.04.011zm.358-1.765-.258 1.541c3.578-2.455 1.739-6.646 1.269-7.571l-.6 3.586.559.476a.071.071 0 0 1-.063.123l-.57-.14-.278 1.661.418.109a.076.076 0 0 1 .054.072.068.068 0 0 1-.06.066z" transform="rotate(-31 -562.797 628.053)" style="fill:#fff"></path>
				</g>
			</g>
			<g data-name="Group 10089">
				<g data-name="Group 10088">
					<path data-name="Path 5353" d="M227.479 412.183a28.888 28.888 0 0 1 5.647-10.557c.55-.361-.666-.726-1.21-.36-2.682 2.64-4.122 5.691-5.69 9.469" transform="rotate(-31 -571.636 592.882)" style="fill:#fff"></path>
				</g>
			</g>
		</g>
	</g>
	<g data-name="Group 10135">
		<g data-name="Group 10093">
			<g data-name="Group 10092">
				<path data-name="Path 5354" d="M181.811 579.524A29.427 29.427 0 0 1 157.3 566.4a.716.716 0 0 1 .567-1.111c3.521-.141 6.953-.141 9.449-.139h.367a33.909 33.909 0 0 0 12.363-2.366 37.606 37.606 0 0 1 13.7-2.557 44.332 44.332 0 0 1 13.988 2.076.716.716 0 0 1 .407 1 29.332 29.332 0 0 1-26.33 16.221zm-22.58-12.847a28.036 28.036 0 0 0 47.236-3.272 44.49 44.49 0 0 0-12.732-1.744 36.367 36.367 0 0 0-13.235 2.479 35.537 35.537 0 0 1-12.827 2.445h-.367c-2.17-.009-5.051-.002-8.075.092z" transform="translate(-152.322 -520.574)" style="fill:#fff"></path>
			</g>
		</g>
		<g data-name="Group 10095">
			<g data-name="Group 10094">
				<path data-name="Path 5355" d="M202.527 617.492a29.4 29.4 0 0 1-19.747-7.6.714.714 0 0 1 .479-1.245 6.985 6.985 0 0 0 .853-.315c2.586-1.044 8.638-3.49 18.619 1.007 3.708 1.673 7.418.686 11.006-.27 3.043-.809 5.915-1.574 8.611-.69a.716.716 0 0 1 .264 1.2 29.354 29.354 0 0 1-20.085 7.913zm-17.848-7.846a28.032 28.032 0 0 0 35.913-.183 18.748 18.748 0 0 0-6.489.988c-3.651.972-7.789 2.073-11.961.191-9.381-4.227-15.03-1.979-17.464-.996z" transform="translate(-173.038 -558.542)" style="fill:#fff"></path>
			</g>
		</g>
		<g data-name="Group 10098">
			<g data-name="Group 10096">
				<path data-name="Path 5356" d="M279.979 485.767a4.738 4.738 0 0 0-9.39-.9l-.079.238 5.746 3.556h.358l3.49-2.593z" transform="translate(-244.871 -455.899)" style="fill:#faa819"></path>
			</g>
			<g data-name="Group 10097">
				<path data-name="Path 5357" d="M273.433 486.194h-.358a.72.72 0 0 1-.376-.106l-5.746-3.556a.715.715 0 0 1-.3-.831l.064-.2a5.453 5.453 0 0 1 10.8.934l.073.178a.711.711 0 0 1-.235.844l-3.49 2.593a.719.719 0 0 1-.432.144zm-5.275-4.6 5.075 3.142 2.85-2.118v-.037a4.023 4.023 0 0 0-7.923-.987zm9.355.987z" transform="translate(-241.691 -452.714)" style="fill:#fff"></path>
			</g>
		</g>
		<g data-name="Group 10100">
			<g data-name="Group 10099">
				<path data-name="Path 5358" d="M160.727 502.755a29.467 29.467 0 0 1-29.368-27.121.714.714 0 0 1 .339-.666c3.965-2.432 11.281-6.511 15.71-6.511 3.972 0 8.075 2.751 11.373 4.963 1.651 1.106 3.356 2.25 4.046 2.25.636 0 2.408-1.555 3.971-2.929 3.307-2.905 7.422-6.522 11.446-6.522 2.646 0 6.551 1.762 11.609 5.24a.713.713 0 0 1 .31.559c.018.422.029.847.029 1.273a29.467 29.467 0 0 1-29.465 29.463zm-27.906-26.8a28.032 28.032 0 0 0 55.937-2.665c0-.286-.006-.572-.015-.856-4.605-3.132-8.233-4.785-10.5-4.785-3.485 0-7.541 3.564-10.5 6.164-2.456 2.159-3.791 3.285-4.913 3.285s-2.683-1.045-4.842-2.492c-2.971-1.992-7.039-4.719-10.577-4.719-3.953.001-10.682 3.7-14.59 6.072z" transform="translate(-131.238 -443.805)" style="fill:#fff"></path>
			</g>
		</g>
		<g data-name="Group 10105">
			<g data-name="Group 10102">
				<g data-name="Group 10101">
					<path data-name="Path 5359" d="M312.655 482.362c-4.948 0-12.915-5.146-13.282-5.386a.715.715 0 0 1 .391-1.315c.636 0 2.408-1.555 3.971-2.929 3.307-2.905 7.422-6.522 11.446-6.522a.715.715 0 0 1 .169 1.41c-1.088.262-1.753.651-1.977 1.155-.413.928.491 2.6 1.366 4.213 1.308 2.414 2.789 5.152 1.443 7.587a3.32 3.32 0 0 1-2.206 1.636 5.337 5.337 0 0 1-1.321.151zm-11.318-5.847c3.22 1.926 9.328 5.053 12.288 4.312a1.923 1.923 0 0 0 1.3-.941c.968-1.751-.26-4.02-1.449-6.215-1.025-1.893-2-3.686-1.519-5.2a34.3 34.3 0 0 0-7.283 5.337 30.829 30.829 0 0 1-3.336 2.707zm14.215 3.717z" transform="translate(-268.175 -443.797)" style="fill:#fff"></path>
				</g>
			</g>
			<g data-name="Group 10104">
				<g data-name="Group 10103">
					<path data-name="Path 5360" d="M152.065 490.628c-2.514 0-6.679-1.19-13.579-5.21a.714.714 0 0 1-.005-1.232c4.435-2.626 10.542-5.755 14.457-5.755a.715.715 0 0 1 .381 1.32 1.43 1.43 0 0 0-.58.959 2.989 2.989 0 0 0 1.053 2.175c2.137 2.285 2.773 4.955 1.544 6.494a3.909 3.909 0 0 1-3.271 1.249zm-11.791-5.834c8.579 4.822 12.871 5.036 13.942 3.694.75-.941.117-2.929-1.471-4.627a4.208 4.208 0 0 1-1.423-3.351 2.708 2.708 0 0 1 .114-.5c-2.687.49-6.55 2.138-11.162 4.784z" transform="translate(-136.769 -453.776)" style="fill:#fff"></path>
				</g>
			</g>
		</g>
		<g data-name="Group 10107">
			<g data-name="Group 10106">
				<path data-name="Path 5361" d="M160.2 402.978a29.489 29.489 0 1 1 29.489-29.489 29.522 29.522 0 0 1-29.489 29.489zm0-57.5a28.006 28.006 0 1 0 28.007 28.005 28.037 28.037 0 0 0-28.007-28.001z" transform="translate(-130.71 -344)" style="fill:#fff"></path>
			</g>
		</g>
	</g>
</svg>