<svg xmlns="http://www.w3.org/2000/svg" width="59" height="59" viewBox="0 0 59 59" fill="none">
	<g clip-path="url(#clip0_1103_20)">
		<path d="M29.4891 58.9501C24.6383 58.9522 19.8623 57.7552 15.5859 55.4654C11.3095 53.1757 7.66552 49.8644 4.97811 45.8261C4.90799 45.7203 4.86724 45.5978 4.86004 45.4711C4.85284 45.3444 4.87945 45.218 4.93714 45.105C4.99483 44.9919 5.08153 44.8963 5.18836 44.8278C5.29519 44.7592 5.41831 44.7204 5.54511 44.7151C9.06611 44.5741 12.4981 44.5741 14.9941 44.5761H15.3611C19.5937 44.5659 23.7869 43.7634 27.7241 42.2101C32.0916 40.5116 36.738 39.6444 41.4241 39.6531C46.1678 39.5922 50.8905 40.2931 55.4121 41.7291C55.5089 41.7622 55.5974 41.8158 55.6718 41.886C55.7461 41.9563 55.8046 42.0417 55.8431 42.1365C55.8817 42.2312 55.8995 42.3331 55.8954 42.4354C55.8912 42.5376 55.8652 42.6377 55.8191 42.7291C53.3768 47.6169 49.6177 51.7255 44.9655 54.5915C40.3134 57.4575 34.9532 58.9671 29.4891 58.9501V58.9501ZM6.90911 46.1031C9.70876 49.9072 13.4241 52.9424 17.7104 54.9269C21.9966 56.9113 26.7147 57.7807 31.4267 57.4543C36.1387 57.1279 40.6919 55.6163 44.6636 53.0598C48.6353 50.5033 51.8967 46.9849 54.1451 42.8311C50.0079 41.6367 45.7191 41.0492 41.4131 41.0871C36.8856 41.0824 32.397 41.9231 28.1781 43.5661C24.0902 45.1664 19.7411 45.9954 15.3511 46.0111H14.9841C12.8141 46.0021 9.93311 46.0091 6.90911 46.1031V46.1031Z" fill="white"/>
		<path d="M29.489 58.95C22.1916 58.9552 15.1531 56.2463 9.74205 51.3501C9.63452 51.2534 9.55886 51.1264 9.5251 50.9858C9.49134 50.8452 9.50107 50.6976 9.553 50.5627C9.60492 50.4277 9.69658 50.3117 9.81587 50.23C9.93517 50.1483 10.0765 50.1047 10.2211 50.105C10.5119 50.0187 10.7969 49.9134 11.0741 49.79C13.6601 48.746 19.7121 46.3 29.6931 50.797C33.4011 52.47 37.1111 51.483 40.6991 50.527C43.7421 49.718 46.6141 48.9531 49.3101 49.8371C49.4274 49.8763 49.5326 49.9453 49.6154 50.0374C49.6981 50.1294 49.7556 50.2413 49.7822 50.3622C49.8088 50.4831 49.8036 50.6088 49.7671 50.7271C49.7306 50.8454 49.6641 50.9521 49.5741 51.037C44.1272 56.1301 36.9461 58.9593 29.489 58.95V58.95ZM11.6411 51.104C16.7018 55.2822 23.0681 57.5523 29.6307 57.5189C36.1933 57.4855 42.5361 55.1506 47.554 50.9211C45.3498 50.8662 43.1531 51.2007 41.0651 51.909C37.4141 52.881 33.2761 53.9821 29.1041 52.1001C19.7231 47.8731 14.074 50.121 11.64 51.104H11.6411Z" fill="white"/>
		<path d="M35.1082 29.8683C35.1085 28.6897 34.6696 27.5533 33.8771 26.681C33.0846 25.8086 31.9954 25.263 30.8222 25.1505C29.649 25.0381 28.476 25.3669 27.5323 26.0728C26.5885 26.7788 25.9417 27.8111 25.7181 28.9683L25.6392 29.2063L31.3852 32.7623H31.7432L35.2332 30.1693L35.1082 29.8683Z" fill="white"/>
		<path d="M31.742 33.4801H31.384C31.2513 33.4801 31.1211 33.4434 31.008 33.3741L25.262 29.8181C25.1261 29.7333 25.0227 29.6052 24.9683 29.4545C24.9139 29.3038 24.9117 29.1392 24.962 28.9871L25.026 28.7871C25.2876 27.4701 26.0259 26.2959 27.0995 25.4895C28.1731 24.683 29.5065 24.3011 30.8443 24.4168C32.1821 24.5325 33.4301 25.1377 34.3493 26.1164C35.2686 27.0952 35.7943 28.3787 35.826 29.7211L35.899 29.8991C35.9596 30.0459 35.9695 30.2087 35.9269 30.3616C35.8843 30.5146 35.7918 30.6489 35.664 30.7431L32.1739 33.3361C32.0494 33.4297 31.8978 33.4802 31.742 33.4801V33.4801ZM26.4669 28.8801L31.542 32.0221L34.392 29.9041V29.8671C34.3919 28.8863 34.0336 27.9393 33.3843 27.2042C32.735 26.469 31.8396 25.9964 30.8663 25.8752C29.893 25.7539 28.9089 25.9924 28.0992 26.5458C27.2894 27.0991 26.7096 27.9293 26.469 28.8801H26.4669Z" fill="white"/>
		<path d="M29.4889 58.9501C22.0809 58.9487 14.9451 56.157 9.50272 51.1311C4.06035 46.1051 0.710722 39.2136 0.120932 31.8291C0.1104 31.6976 0.136501 31.5657 0.196341 31.4482C0.25618 31.3306 0.347423 31.2319 0.459936 31.1631C4.42494 28.7311 11.7409 24.6521 16.1699 24.6521C20.1419 24.6521 24.2449 27.4031 27.5429 29.6151C29.1939 30.7211 30.8989 31.8651 31.5889 31.8651C32.2249 31.8651 33.9969 30.3101 35.5599 28.9361C38.8669 26.0311 42.9819 22.4141 47.0059 22.4141C49.6519 22.4141 53.5569 24.1761 58.6149 27.6541C58.7065 27.7167 58.7823 27.7998 58.8361 27.8969C58.8899 27.9939 58.9203 28.1022 58.9249 28.2131C58.9429 28.6351 58.9539 29.0601 58.9539 29.4861C58.9529 37.3001 55.8481 44.7939 50.3225 50.3191C44.797 55.8443 37.303 58.9485 29.4889 58.9491V58.9501ZM1.58294 32.1501C2.26786 39.321 5.68708 45.953 11.1312 50.6702C16.5754 55.3874 23.6266 57.8278 30.822 57.485C38.0173 57.1422 44.8046 54.0425 49.7756 48.8291C54.7466 43.6156 57.5199 36.6886 57.5199 29.4851C57.5199 29.1991 57.5139 28.9131 57.5049 28.6291C52.8999 25.4971 49.2719 23.8441 47.0049 23.8441C43.5199 23.8441 39.4639 27.4081 36.5049 30.0081C34.0489 32.1671 32.7139 33.2931 31.5919 33.2931C30.4699 33.2931 28.9089 32.2481 26.7499 30.8011C23.7789 28.8091 19.7109 26.0821 16.1729 26.0821C12.2199 26.0831 5.49094 29.7821 1.58294 32.1541V32.1501Z" fill="white"/>
		<path d="M44.4797 38.5651C39.5317 38.5651 31.5647 33.4191 31.1977 33.1791C31.0681 33.0951 30.9692 32.9714 30.9158 32.8265C30.8623 32.6817 30.8572 32.5233 30.9012 32.3753C30.9452 32.2273 31.036 32.0975 31.1599 32.0053C31.2838 31.9132 31.4343 31.8636 31.5887 31.8641C32.2247 31.8641 33.9967 30.3091 35.5597 28.9351C38.8667 26.0301 42.9817 22.4131 47.0057 22.4131C47.1808 22.4128 47.3499 22.4768 47.4809 22.5929C47.612 22.709 47.6959 22.8692 47.7167 23.043C47.7375 23.2168 47.6939 23.3923 47.594 23.5361C47.4941 23.6799 47.3449 23.782 47.1747 23.8231C46.0867 24.0851 45.4217 24.4741 45.1977 24.9781C44.7847 25.9061 45.6887 27.5781 46.5637 29.1911C47.8717 31.6051 49.3527 34.3431 48.0067 36.7781C47.777 37.1924 47.4613 37.5527 47.0808 37.8349C46.7003 38.1171 46.2638 38.3146 45.8007 38.4141C45.3684 38.5193 44.9246 38.57 44.4797 38.5651V38.5651ZM33.1617 32.7181C36.3817 34.6441 42.4897 37.7711 45.4497 37.0301C45.7214 36.9761 45.9782 36.8641 46.2026 36.7017C46.4269 36.5393 46.6135 36.3303 46.7497 36.0891C47.7177 34.3381 46.4897 32.0691 45.3007 29.8741C44.2757 27.9811 43.3007 26.1881 43.7817 24.6741C41.1295 26.1244 38.6806 27.919 36.4987 30.0111C35.451 30.9899 34.3363 31.8944 33.1627 32.7181H33.1617Z" fill="white"/>
		<path d="M15.2958 36.8523C12.7818 36.8523 8.6168 35.6623 1.7168 31.6423C1.6091 31.5797 1.51963 31.4901 1.45727 31.3823C1.39491 31.2745 1.36184 31.1523 1.36133 31.0277C1.36083 30.9032 1.3929 30.7806 1.45438 30.6723C1.51586 30.564 1.60462 30.4737 1.71181 30.4103C6.14681 27.7843 12.2538 24.6553 16.1688 24.6553C16.3239 24.6553 16.4747 24.7057 16.5986 24.7989C16.7225 24.8921 16.8127 25.023 16.8557 25.172C16.8987 25.321 16.8921 25.4798 16.837 25.6247C16.7818 25.7696 16.681 25.8927 16.5498 25.9753C16.3935 26.0878 16.2616 26.2308 16.1619 26.3956C16.0623 26.5604 15.9969 26.7436 15.9698 26.9343C15.9843 27.3501 16.0854 27.7584 16.2667 28.1329C16.448 28.5075 16.7056 28.84 17.0228 29.1093C19.1598 31.3943 19.7958 34.0643 18.5668 35.6033C18.1562 36.0514 17.6468 36.3977 17.079 36.6145C16.5112 36.8313 15.9006 36.9127 15.2958 36.8523V36.8523ZM3.50481 31.0183C12.0838 35.8403 16.3758 36.0543 17.4468 34.7123C18.1968 33.7713 17.5638 31.7833 15.9758 30.0853C15.5029 29.6689 15.1294 29.1516 14.8832 28.5716C14.6369 27.9916 14.524 27.3637 14.5528 26.7343C14.5749 26.5644 14.6131 26.397 14.6668 26.2343C11.9798 26.7243 8.11681 28.3723 3.50481 31.0183Z" fill="white"/>
		<path d="M29.49 58.978C23.6576 58.978 17.9562 57.2485 13.1068 54.0082C8.25734 50.7679 4.47766 46.1624 2.24571 40.774C0.0137589 35.3856 -0.570229 29.4563 0.567611 23.736C1.70545 18.0157 4.51401 12.7612 8.63812 8.63713C12.7622 4.51302 18.0167 1.70447 23.737 0.566634C29.4573 -0.571205 35.3865 0.0127823 40.7749 2.24474C46.1634 4.47669 50.7689 8.25638 54.0092 13.1058C57.2495 17.9553 58.979 23.6567 58.979 29.489C58.9703 37.3073 55.8606 44.8029 50.3322 50.3313C44.8038 55.8596 37.3083 58.9693 29.49 58.978ZM29.49 1.47801C23.9509 1.47821 18.5363 3.12094 13.9309 6.19844C9.32541 9.27594 5.73596 13.65 3.61644 18.7675C1.49691 23.885 0.942503 29.5161 2.02331 34.9487C3.10413 40.3813 5.77161 45.3714 9.68846 49.2879C13.6053 53.2045 18.5956 55.8716 24.0283 56.9521C29.4609 58.0325 35.092 57.4777 40.2094 55.3578C45.3267 53.2379 49.7005 49.6482 52.7777 45.0425C55.8549 40.4368 57.4972 35.0221 57.497 29.483C57.4875 22.0586 54.5335 14.941 49.2831 9.69173C44.0326 4.44241 36.9144 1.48995 29.49 1.48201V1.47801Z" fill="white"/>
		<path d="M21.5361 13.4428L19.1388 14.3419C19.5732 9.77601 25.3746 9.80286 27.8778 11.0661L25.8971 11.8082L25.0003 11.2107L25.4779 11.9668L23.8151 12.5914L23.2265 11.7283L23.5101 12.707L22.1218 13.2273L21.4518 12.2463L21.5361 13.4428Z" fill="#331A3A"/>
		<path d="M27.9091 11.1276L27.8971 11.1348L25.9164 11.877C25.9058 11.8813 25.8943 11.8829 25.8829 11.8816C25.8715 11.8803 25.8606 11.8761 25.8513 11.8694L25.2336 11.4589L25.5294 11.9298C25.5352 11.939 25.5388 11.9494 25.5401 11.9602C25.5413 11.9709 25.54 11.9819 25.5365 11.9921C25.5329 12.0022 25.5272 12.0115 25.5199 12.0193C25.5125 12.0271 25.5036 12.0333 25.4938 12.0376L23.831 12.6622C23.8161 12.6677 23.7999 12.668 23.7848 12.6631C23.7698 12.6581 23.7568 12.6482 23.7481 12.635L23.41 12.1382L23.5681 12.6848C23.571 12.6935 23.5721 12.7026 23.5714 12.7117C23.5707 12.7207 23.5682 12.7296 23.5641 12.7377C23.56 12.7458 23.5543 12.7531 23.5473 12.759C23.5404 12.7649 23.5324 12.7694 23.5237 12.7722L22.1354 13.2925C22.1206 13.298 22.1043 13.2983 22.0893 13.2934C22.0742 13.2884 22.0613 13.2785 22.0526 13.2653L21.533 12.5054L21.6027 13.4388C21.6037 13.4542 21.5996 13.4694 21.5911 13.4823C21.5827 13.4952 21.5703 13.505 21.5557 13.5101L19.1584 14.4093C19.1471 14.4133 19.135 14.4146 19.1231 14.413C19.1112 14.4114 19.0999 14.4071 19.09 14.4003C19.0805 14.3927 19.073 14.3829 19.0681 14.3718C19.0633 14.3607 19.0612 14.3486 19.0622 14.3365C19.1008 13.6458 19.3172 12.9768 19.6903 12.3943C20.0635 11.8118 20.5807 11.3355 21.192 11.0116C22.2427 10.5206 23.3882 10.2652 24.548 10.2633C25.7079 10.2615 26.8541 10.5132 27.9065 11.0009C27.9184 11.0073 27.9284 11.0168 27.9354 11.0284C27.9424 11.04 27.9461 11.0533 27.9461 11.0669C27.945 11.0791 27.9411 11.091 27.9346 11.1015C27.9282 11.1121 27.9195 11.121 27.9091 11.1276V11.1276ZM25.9014 11.7296L27.6907 11.0593C26.6723 10.6237 25.574 10.4057 24.4664 10.4193C23.3588 10.433 22.2662 10.6778 21.2588 11.1383C20.6858 11.4413 20.1982 11.8836 19.841 12.4244C19.4838 12.9652 19.2685 13.5872 19.2147 14.2331L21.4538 13.3929L21.3683 12.2449C21.3668 12.2295 21.3707 12.214 21.3792 12.201C21.3877 12.188 21.4005 12.1783 21.4153 12.1736C21.4302 12.1686 21.4463 12.1685 21.4612 12.1735C21.4761 12.1784 21.4891 12.1879 21.4981 12.2008L22.1372 13.1363L23.4108 12.658L23.1458 11.7451C23.1421 11.7291 23.144 11.7123 23.1512 11.6975C23.1583 11.6827 23.1703 11.6709 23.1852 11.6638C23.2 11.6568 23.2168 11.6551 23.2328 11.6589C23.2488 11.6628 23.263 11.672 23.273 11.685L23.8307 12.5025L25.3567 11.9356L24.9301 11.2586C24.9216 11.2448 24.9179 11.2285 24.9195 11.2123C24.9212 11.1961 24.9281 11.1809 24.9393 11.1691C24.951 11.1577 24.9664 11.1508 24.9826 11.1495C24.9989 11.1483 25.0151 11.1528 25.0285 11.1622L25.9014 11.7296Z" fill="#331A3A"/>
		<path d="M13.7146 11.9259L11.2465 10.8921C14.9513 8.7252 19.283 9.40685 19.913 14.5202L16.2356 12.9818L16.2292 11.9046L15.8863 12.8345L14.1038 12.0877L14.3802 11.0676L13.7146 11.9259Z" fill="#331A3A"/>
		<path d="M19.9453 14.5835C19.9363 14.5872 19.9266 14.5891 19.9168 14.5889C19.9071 14.5888 19.8974 14.5866 19.8885 14.5826L16.211 13.0442C16.1982 13.0388 16.1872 13.0297 16.1796 13.0181C16.1719 13.0064 16.1679 12.9928 16.1681 12.9788L16.1649 12.2957L15.9575 12.8564C15.9501 12.8747 15.9449 12.8932 15.9186 12.8979C15.9096 12.9016 15.8999 12.9034 15.8901 12.9033C15.8803 12.9031 15.8707 12.901 15.8617 12.897L14.0792 12.1501C14.0627 12.1439 14.0491 12.1317 14.0412 12.1159C14.0333 12.1002 14.0317 12.082 14.0366 12.065L14.2203 11.3895L13.7763 11.9637C13.767 11.9764 13.7538 11.9856 13.7386 11.9899C13.7235 11.9941 13.7073 11.9932 13.6928 11.9871L11.2247 10.9533C11.2121 10.9483 11.2011 10.9397 11.1932 10.9287C11.1852 10.9176 11.1805 10.9045 11.1797 10.8909C11.1791 10.8778 11.1818 10.8647 11.1876 10.8529C11.1934 10.8411 11.2022 10.831 11.2131 10.8236C13.3671 9.5638 15.6512 9.30686 17.329 10.1319C18.109 10.5726 18.7633 11.2056 19.2296 11.9705C19.696 12.7355 19.9589 13.607 19.9934 14.5022C19.9955 14.5148 19.994 14.5276 19.9888 14.5393C19.9837 14.5509 19.9753 14.5608 19.9647 14.5677C19.9592 14.574 19.9526 14.5793 19.9453 14.5835V14.5835ZM16.3104 12.9303L19.8294 14.4024C19.7837 13.5524 19.5243 12.7277 19.0753 12.0045C18.6263 11.2814 18.0022 10.6832 17.2606 10.2652C16.3082 9.89 15.2795 9.7497 14.2614 9.85622C13.2433 9.96275 12.2659 10.3129 11.4118 10.8772L13.697 11.8333L14.3301 11.0214C14.3403 11.0084 14.3548 10.9993 14.371 10.9958C14.3871 10.9923 14.404 10.9946 14.4187 11.0022C14.4335 11.0101 14.4451 11.0228 14.4517 11.0382C14.4582 11.0536 14.4593 11.0708 14.4546 11.0869L14.1959 12.0463L15.8536 12.7397L16.1702 11.8807C16.1763 11.865 16.1876 11.8519 16.2023 11.8435C16.2169 11.8351 16.2339 11.832 16.2506 11.8346C16.2672 11.8378 16.2823 11.8467 16.293 11.8598C16.3037 11.8729 16.3095 11.8894 16.3093 11.9064L16.3104 12.9303Z" fill="#331A3A"/>
		<path d="M12.9993 16.3544C12.3663 16.7053 11.761 17.1037 11.1885 17.5463C11.4675 13.9954 16.2838 11.3768 19.1392 14.3428C17.8014 14.5148 16.4888 14.8456 15.2293 15.3283L15.0205 14.608L14.9174 15.4481C14.3694 15.6647 13.8334 15.9109 13.3118 16.1853L13.1123 15.5037L12.9993 16.3544Z" fill="#331A3A"/>
		<path d="M19.175 14.4037C19.1654 14.4089 19.1551 14.4127 19.1445 14.415C17.8132 14.5874 16.507 14.9168 15.2531 15.3964C15.2439 15.4003 15.234 15.4022 15.224 15.402C15.214 15.4018 15.2042 15.3994 15.1951 15.3951C15.1861 15.3909 15.1781 15.3847 15.1717 15.3771C15.1653 15.3694 15.1606 15.3605 15.1581 15.3509L15.0429 14.965L14.98 15.4602C14.9784 15.4731 14.9733 15.4853 14.9652 15.4955C14.9571 15.5057 14.9464 15.5135 14.9342 15.518C14.389 15.7338 13.8556 15.9783 13.3363 16.2506C13.3269 16.2555 13.3166 16.2583 13.306 16.2588C13.2954 16.2593 13.2849 16.2575 13.2751 16.2536C13.2655 16.2492 13.257 16.2429 13.2501 16.235C13.2431 16.2271 13.2379 16.2179 13.2348 16.2078L13.1309 15.8526L13.0618 16.3608C13.0611 16.3718 13.0574 16.3824 13.0512 16.3915C13.045 16.4006 13.0364 16.4078 13.0263 16.4124C12.3973 16.7619 11.7954 17.1582 11.2258 17.5981C11.2146 17.6065 11.2013 17.6117 11.1873 17.6131C11.1734 17.6145 11.1593 17.612 11.1466 17.606C11.1342 17.6002 11.1238 17.5908 11.1167 17.5791C11.1097 17.5673 11.1063 17.5537 11.107 17.54C11.2218 16.5732 11.6084 15.6587 12.2219 14.9027C12.8354 14.1467 13.6507 13.5801 14.5731 13.2687C15.355 12.9574 16.2126 12.8887 17.0341 13.0715C17.8556 13.2544 18.603 13.6803 19.179 14.2939C19.1884 14.3037 19.1948 14.316 19.1974 14.3293C19.2001 14.3426 19.1988 14.3564 19.1939 14.369C19.1923 14.3826 19.1855 14.395 19.175 14.4037V14.4037ZM15.2714 15.2326C16.4711 14.7871 17.7146 14.4701 18.9811 14.2868C18.4208 13.7316 17.7105 13.3521 16.9375 13.1949C16.1645 13.0376 15.3624 13.1094 14.6297 13.4016C13.7642 13.7029 12.9959 14.232 12.4057 14.933C11.8154 15.634 11.4249 16.4811 11.2753 17.3852C11.8015 16.9865 12.3554 16.6256 12.9328 16.3053L13.0378 15.4897C13.0401 15.4734 13.0479 15.4583 13.0599 15.4469C13.0719 15.4355 13.0873 15.4284 13.1037 15.4268C13.1203 15.4252 13.1369 15.4295 13.1506 15.4391C13.1642 15.4486 13.174 15.4627 13.1782 15.4788L13.3518 16.0745C13.833 15.825 14.3359 15.594 14.8458 15.3903L14.9484 14.5902C14.9508 14.5739 14.9585 14.5588 14.9705 14.5473C14.9825 14.5359 14.9979 14.5289 15.0144 14.5272C15.0309 14.5256 15.0475 14.53 15.0612 14.5395C15.0748 14.5491 15.0846 14.5632 15.0888 14.5793L15.2714 15.2326Z" fill="#331A3A"/>
		<path d="M15.5515 16.5205C15.9506 15.9149 16.4792 15.4054 17.0991 15.0289C17.719 14.6524 18.4147 14.4182 19.1361 14.3432L17.495 17.2076L16.7399 16.9858L17.2322 17.6653L16.2043 19.4496L15.6945 18.7059L16.0087 19.79L15.2553 21.1048C14.9956 20.3596 14.8876 19.5699 14.9376 18.7822C14.9877 17.9946 15.1948 17.225 15.5468 16.5186" fill="#331A3A"/>
		<path d="M15.3014 21.1659C15.288 21.1733 15.2727 21.1768 15.2574 21.1761C15.2436 21.1753 15.2304 21.1704 15.2193 21.1621C15.2083 21.1537 15.2 21.1423 15.1954 21.1293C14.9316 20.374 14.8218 19.5735 14.8724 18.7751C14.9231 17.9766 15.1331 17.1964 15.4902 16.4805C15.8975 15.8671 16.4349 15.351 17.0643 14.9688C17.6936 14.5866 18.3994 14.3478 19.1315 14.2692C19.1445 14.269 19.1573 14.2719 19.169 14.2777C19.1806 14.2835 19.1906 14.2921 19.1982 14.3027C19.2049 14.3136 19.2086 14.3262 19.2087 14.3391C19.2088 14.352 19.2054 14.3646 19.1989 14.3757L17.5578 17.2401C17.5501 17.2546 17.5375 17.266 17.5222 17.2722C17.5069 17.2784 17.49 17.279 17.4743 17.2739L16.9216 17.1113L17.2908 17.621C17.2992 17.6322 17.304 17.6456 17.3047 17.6595C17.3054 17.6734 17.3019 17.6873 17.2947 17.6992L16.2668 19.4834C16.2606 19.4938 16.252 19.5024 16.2417 19.5086C16.2314 19.5148 16.2197 19.5184 16.2076 19.519C16.1958 19.5194 16.184 19.5169 16.1734 19.5117C16.1627 19.5065 16.1535 19.4988 16.1466 19.4892L15.8874 19.1141L16.0768 19.7691C16.0796 19.7781 16.0804 19.7876 16.0792 19.797C16.078 19.8064 16.0748 19.8154 16.0698 19.8234L15.3164 21.1383C15.3161 21.1437 15.3147 21.149 15.3121 21.1538C15.3095 21.1586 15.3059 21.1627 15.3014 21.1659ZM15.6132 16.557C15.2717 17.2278 15.0667 17.9597 15.01 18.7102C14.9534 19.4608 15.0462 20.2152 15.2831 20.9296L15.9391 19.7807L15.634 18.7274C15.6289 18.711 15.63 18.6932 15.6373 18.6776C15.6446 18.662 15.6574 18.6497 15.6732 18.6431C15.6883 18.6355 15.7056 18.6338 15.7218 18.6382C15.7381 18.6427 15.7521 18.653 15.7612 18.6672L16.2075 19.3149L17.1506 17.6691L16.6866 17.0251C16.6774 17.013 16.6723 16.9983 16.6723 16.9832C16.6723 16.968 16.6772 16.9533 16.6864 16.9412C16.6949 16.9292 16.7069 16.9202 16.7208 16.9154C16.7346 16.9106 16.7497 16.9103 16.7637 16.9146L17.4624 17.1201L19.006 14.4275C18.3222 14.5197 17.666 14.7571 17.0815 15.1238C16.4969 15.4905 15.9976 15.978 15.617 16.5536L15.6132 16.557Z" fill="#331A3A"/>
		<path d="M22.7615 15.925L19.1387 14.3418C22.5626 12.365 26.215 15.0225 26.8944 17.7221L24.7161 16.7723L24.6056 15.5321L24.3123 16.5973L23.0993 16.0697L22.9533 15.1821L22.7615 15.925Z" fill="#331A3A"/>
		<path d="M26.9285 17.7847C26.9189 17.7903 26.9082 17.7937 26.8971 17.7945C26.886 17.7953 26.8749 17.7935 26.8647 17.7892L24.6859 16.8386C24.6742 16.8335 24.6642 16.8253 24.6567 16.815C24.6493 16.8047 24.6448 16.7926 24.6436 16.7799L24.567 15.93L24.377 16.6158C24.374 16.6257 24.3691 16.635 24.3624 16.6429C24.3558 16.6509 24.3477 16.6575 24.3385 16.6623C24.3293 16.6668 24.3192 16.6694 24.3089 16.6697C24.2987 16.67 24.2884 16.6682 24.279 16.6642L23.066 16.1366C23.0548 16.1318 23.0451 16.1243 23.0375 16.1148C23.03 16.1053 23.0249 16.094 23.0227 16.0821L22.9325 15.532L22.8298 15.9436C22.8274 15.9538 22.8227 15.9634 22.816 15.9714C22.8093 15.9795 22.8009 15.9859 22.7913 15.9902C22.7821 15.9947 22.772 15.9972 22.7617 15.9976C22.7515 15.9979 22.7413 15.996 22.7318 15.9921L19.1072 14.4099C19.0955 14.4043 19.0854 14.3958 19.0778 14.3853C19.0702 14.3747 19.0655 14.3624 19.0639 14.3495C19.0636 14.3362 19.0669 14.323 19.0735 14.3115C19.0801 14.2999 19.0898 14.2903 19.1015 14.2839C19.7805 13.8827 20.5451 13.6483 21.3323 13.5999C22.1195 13.5516 22.907 13.6907 23.63 14.0057C24.4261 14.3358 25.1384 14.8396 25.7148 15.4804C26.2911 16.1211 26.717 16.8826 26.9612 17.709C26.9648 17.7219 26.9645 17.7356 26.9603 17.7483C26.9561 17.761 26.9482 17.7722 26.9376 17.7804L26.9285 17.7847ZM24.7811 16.7253L26.7841 17.6007C26.5238 16.8294 26.103 16.122 25.5497 15.5249C24.9963 14.9278 24.3227 14.4547 23.5734 14.1366C22.8934 13.8392 22.154 13.7025 21.4126 13.737C20.6712 13.7716 19.9478 13.9765 19.2984 14.3359L22.7135 15.8257L22.8806 15.1641C22.8843 15.1482 22.8935 15.134 22.9066 15.1242C22.9197 15.1144 22.9359 15.1096 22.9523 15.1106C22.9688 15.1108 22.9847 15.1171 22.997 15.1282C23.0092 15.1393 23.017 15.1545 23.0189 15.1709L23.1583 16.0205L24.2615 16.4974L24.537 15.5152C24.5417 15.4991 24.5518 15.485 24.5656 15.4755C24.5794 15.4659 24.5961 15.4614 24.6128 15.4627C24.6296 15.4639 24.6454 15.471 24.6574 15.4829C24.6694 15.4947 24.6768 15.5103 24.6784 15.5271L24.7811 16.7253Z" fill="#331A3A"/>
		<path d="M20.5606 17.959L19.1393 14.3413C19.1393 14.3413 24.35 17.2022 22.0885 21.8358L21.4413 20.1761L21.8408 19.8392L21.3636 19.9789L20.6937 18.2816L21.3279 18.0848L20.5606 17.959Z" fill="#331A3A"/>
		<path d="M22.1202 21.8978C22.1084 21.9057 22.0944 21.9097 22.0802 21.909C22.0663 21.9086 22.0528 21.904 22.0414 21.8959C22.0301 21.8877 22.0214 21.8764 22.0166 21.8633L21.3651 20.2061C21.3595 20.192 21.3584 20.1764 21.3621 20.1617C21.3658 20.1469 21.374 20.1337 21.3856 20.1238L21.5249 20.0062L21.374 20.0502C21.3571 20.0547 21.3391 20.053 21.3234 20.0453C21.3076 20.0376 21.2952 20.0246 21.2883 20.0085L20.6183 18.311C20.6145 18.3017 20.6127 18.2916 20.613 18.2815C20.6134 18.2714 20.616 18.2616 20.6205 18.2526C20.6247 18.2435 20.6308 18.2354 20.6385 18.229C20.6461 18.2226 20.6551 18.218 20.6648 18.2155L21.0108 18.1079L20.5458 18.0291C20.5336 18.0273 20.5221 18.0222 20.5127 18.0143C20.5032 18.0064 20.4961 17.9961 20.4921 17.9844L19.07 14.3672C19.0647 14.3537 19.0638 14.339 19.0673 14.325C19.0708 14.311 19.0786 14.2984 19.0895 14.289C19.1003 14.2791 19.1139 14.2729 19.1285 14.2713C19.143 14.2697 19.1577 14.2727 19.1704 14.28C19.2246 14.3081 24.414 17.2285 22.1488 21.8678C22.1415 21.8797 22.1317 21.8899 22.1202 21.8978V21.8978ZM21.518 20.2005L22.0905 21.6543C23.8931 17.7072 20.1582 15.0619 19.2789 14.5111L20.6116 17.894L21.3359 18.014C21.3516 18.0167 21.3661 18.0245 21.3768 18.0364C21.3876 18.0482 21.394 18.0633 21.3951 18.0793C21.3962 18.0952 21.3918 18.1111 21.3828 18.1243C21.3737 18.1375 21.3605 18.1472 21.3452 18.1519L20.7845 18.3255L21.4017 19.8924L21.8162 19.7706C21.8319 19.7666 21.8484 19.7678 21.8634 19.7739C21.8784 19.78 21.8911 19.7907 21.8995 19.8045C21.9076 19.8187 21.9104 19.8354 21.9072 19.8515C21.904 19.8676 21.8951 19.8819 21.8821 19.892L21.518 20.2005Z" fill="#331A3A"/>
		<path d="M20.2725 26.4178C19.2408 22.5174 19.0374 18.444 19.6757 14.4603C19.9612 13.8675 18.7309 14.181 18.4531 14.7749C17.5139 18.4191 17.8509 21.776 18.4527 25.8219" fill="#331A3A"/>
		<path d="M29.4891 58.9501C24.6383 58.9522 19.8623 57.7552 15.5859 55.4654C11.3095 53.1757 7.66552 49.8644 4.97811 45.8261C4.90799 45.7203 4.86724 45.5978 4.86004 45.4711C4.85284 45.3444 4.87945 45.218 4.93714 45.105C4.99483 44.9919 5.08153 44.8963 5.18836 44.8278C5.29519 44.7592 5.41831 44.7204 5.54511 44.7151C9.06611 44.5741 12.4981 44.5741 14.9941 44.5761H15.3611C19.5937 44.5659 23.7869 43.7634 27.7241 42.2101C32.0916 40.5116 36.738 39.6444 41.4241 39.6531C46.1678 39.5922 50.8905 40.2931 55.4121 41.7291C55.5089 41.7622 55.5974 41.8158 55.6718 41.886C55.7461 41.9563 55.8046 42.0417 55.8431 42.1365C55.8817 42.2312 55.8995 42.3331 55.8954 42.4354C55.8912 42.5376 55.8652 42.6377 55.8191 42.7291C53.3768 47.6169 49.6177 51.7255 44.9655 54.5915C40.3134 57.4575 34.9532 58.9671 29.4891 58.9501V58.9501ZM6.90911 46.1031C9.70876 49.9072 13.4241 52.9424 17.7104 54.9269C21.9966 56.9113 26.7147 57.7807 31.4267 57.4543C36.1387 57.1279 40.6919 55.6163 44.6636 53.0598C48.6353 50.5033 51.8967 46.9849 54.1451 42.8311C50.0079 41.6367 45.7191 41.0492 41.4131 41.0871C36.8856 41.0824 32.397 41.9231 28.1781 43.5661C24.0902 45.1664 19.7411 45.9954 15.3511 46.0111H14.9841C12.8141 46.0021 9.93311 46.0091 6.90911 46.1031V46.1031Z" fill="#331A3A"/>
		<path d="M29.489 58.95C22.1916 58.9552 15.1531 56.2463 9.74205 51.3501C9.63452 51.2534 9.55886 51.1264 9.5251 50.9858C9.49134 50.8452 9.50107 50.6976 9.553 50.5627C9.60492 50.4277 9.69658 50.3117 9.81587 50.23C9.93517 50.1483 10.0765 50.1047 10.2211 50.105C10.5119 50.0187 10.7969 49.9134 11.0741 49.79C13.6601 48.746 19.7121 46.3 29.6931 50.797C33.4011 52.47 37.1111 51.483 40.6991 50.527C43.7421 49.718 46.6141 48.9531 49.3101 49.8371C49.4274 49.8763 49.5326 49.9453 49.6154 50.0374C49.6981 50.1294 49.7556 50.2413 49.7822 50.3622C49.8088 50.4831 49.8036 50.6088 49.7671 50.7271C49.7306 50.8454 49.6641 50.9521 49.5741 51.037C44.1272 56.1301 36.9461 58.9593 29.489 58.95V58.95ZM11.6411 51.104C16.7018 55.2822 23.0681 57.5523 29.6307 57.5189C36.1933 57.4855 42.5361 55.1506 47.554 50.9211C45.3498 50.8662 43.1531 51.2007 41.0651 51.909C37.4141 52.881 33.2761 53.9821 29.1041 52.1001C19.7231 47.8731 14.074 50.121 11.64 51.104H11.6411Z" fill="#331A3A"/>
		<path d="M35.1082 29.8683C35.1085 28.6897 34.6696 27.5533 33.8771 26.681C33.0846 25.8086 31.9954 25.263 30.8222 25.1505C29.649 25.0381 28.476 25.3669 27.5323 26.0728C26.5885 26.7788 25.9417 27.8111 25.7181 28.9683L25.6392 29.2063L31.3852 32.7623H31.7432L35.2332 30.1693L35.1082 29.8683Z" fill="#FAA819"/>
		<path d="M31.742 33.4801H31.384C31.2513 33.4801 31.1211 33.4434 31.008 33.3741L25.262 29.8181C25.1261 29.7333 25.0227 29.6052 24.9683 29.4545C24.9139 29.3038 24.9117 29.1392 24.962 28.9871L25.026 28.7871C25.2876 27.4701 26.0259 26.2959 27.0995 25.4895C28.1731 24.683 29.5065 24.3011 30.8443 24.4168C32.1821 24.5325 33.4301 25.1377 34.3493 26.1164C35.2686 27.0952 35.7943 28.3787 35.826 29.7211L35.899 29.8991C35.9596 30.0459 35.9695 30.2087 35.9269 30.3616C35.8843 30.5146 35.7918 30.6489 35.664 30.7431L32.1739 33.3361C32.0494 33.4297 31.8978 33.4802 31.742 33.4801V33.4801ZM26.4669 28.8801L31.542 32.0221L34.392 29.9041V29.8671C34.3919 28.8863 34.0336 27.9393 33.3843 27.2042C32.735 26.469 31.8396 25.9964 30.8663 25.8752C29.893 25.7539 28.9089 25.9924 28.0992 26.5458C27.2894 27.0991 26.7096 27.9293 26.469 28.8801H26.4669Z" fill="#331A3A"/>
		<path d="M29.4889 58.9501C22.0809 58.9487 14.9451 56.157 9.50272 51.1311C4.06035 46.1051 0.710722 39.2136 0.120932 31.8291C0.1104 31.6976 0.136501 31.5657 0.196341 31.4482C0.25618 31.3306 0.347423 31.2319 0.459936 31.1631C4.42494 28.7311 11.7409 24.6521 16.1699 24.6521C20.1419 24.6521 24.2449 27.4031 27.5429 29.6151C29.1939 30.7211 30.8989 31.8651 31.5889 31.8651C32.2249 31.8651 33.9969 30.3101 35.5599 28.9361C38.8669 26.0311 42.9819 22.4141 47.0059 22.4141C49.6519 22.4141 53.5569 24.1761 58.6149 27.6541C58.7065 27.7167 58.7823 27.7998 58.8361 27.8969C58.8899 27.9939 58.9203 28.1022 58.9249 28.2131C58.9429 28.6351 58.9539 29.0601 58.9539 29.4861C58.9529 37.3001 55.8481 44.7939 50.3225 50.3191C44.797 55.8443 37.303 58.9485 29.4889 58.9491V58.9501ZM1.58294 32.1501C2.26786 39.321 5.68708 45.953 11.1312 50.6702C16.5754 55.3874 23.6266 57.8278 30.822 57.485C38.0173 57.1422 44.8046 54.0425 49.7756 48.8291C54.7466 43.6156 57.5199 36.6886 57.5199 29.4851C57.5199 29.1991 57.5139 28.9131 57.5049 28.6291C52.8999 25.4971 49.2719 23.8441 47.0049 23.8441C43.5199 23.8441 39.4639 27.4081 36.5049 30.0081C34.0489 32.1671 32.7139 33.2931 31.5919 33.2931C30.4699 33.2931 28.9089 32.2481 26.7499 30.8011C23.7789 28.8091 19.7109 26.0821 16.1729 26.0821C12.2199 26.0831 5.49094 29.7821 1.58294 32.1541V32.1501Z" fill="#331A3A"/>
		<path d="M44.4797 38.5651C39.5317 38.5651 31.5647 33.4191 31.1977 33.1791C31.0681 33.0951 30.9692 32.9714 30.9158 32.8265C30.8623 32.6817 30.8572 32.5233 30.9012 32.3753C30.9452 32.2273 31.036 32.0975 31.1599 32.0053C31.2838 31.9132 31.4343 31.8636 31.5887 31.8641C32.2247 31.8641 33.9967 30.3091 35.5597 28.9351C38.8667 26.0301 42.9817 22.4131 47.0057 22.4131C47.1808 22.4128 47.3499 22.4768 47.4809 22.5929C47.612 22.709 47.6959 22.8692 47.7167 23.043C47.7375 23.2168 47.6939 23.3923 47.594 23.5361C47.4941 23.6799 47.3449 23.782 47.1747 23.8231C46.0867 24.0851 45.4217 24.4741 45.1977 24.9781C44.7847 25.9061 45.6887 27.5781 46.5637 29.1911C47.8717 31.6051 49.3527 34.3431 48.0067 36.7781C47.777 37.1924 47.4613 37.5527 47.0808 37.8349C46.7003 38.1171 46.2638 38.3146 45.8007 38.4141C45.3684 38.5193 44.9246 38.57 44.4797 38.5651V38.5651ZM33.1617 32.7181C36.3817 34.6441 42.4897 37.7711 45.4497 37.0301C45.7214 36.9761 45.9782 36.8641 46.2026 36.7017C46.4269 36.5393 46.6135 36.3303 46.7497 36.0891C47.7177 34.3381 46.4897 32.0691 45.3007 29.8741C44.2757 27.9811 43.3007 26.1881 43.7817 24.6741C41.1295 26.1244 38.6806 27.919 36.4987 30.0111C35.451 30.9899 34.3363 31.8944 33.1627 32.7181H33.1617Z" fill="#331A3A"/>
		<path d="M15.2958 36.8523C12.7818 36.8523 8.6168 35.6623 1.7168 31.6423C1.6091 31.5797 1.51963 31.4901 1.45727 31.3823C1.39491 31.2745 1.36184 31.1523 1.36133 31.0277C1.36083 30.9032 1.3929 30.7806 1.45438 30.6723C1.51586 30.564 1.60462 30.4737 1.71181 30.4103C6.14681 27.7843 12.2538 24.6553 16.1688 24.6553C16.3239 24.6553 16.4747 24.7057 16.5986 24.7989C16.7225 24.8921 16.8127 25.023 16.8557 25.172C16.8987 25.321 16.8921 25.4798 16.837 25.6247C16.7818 25.7696 16.681 25.8927 16.5498 25.9753C16.3935 26.0878 16.2616 26.2308 16.1619 26.3956C16.0623 26.5604 15.9969 26.7436 15.9698 26.9343C15.9843 27.3501 16.0854 27.7584 16.2667 28.1329C16.448 28.5075 16.7056 28.84 17.0228 29.1093C19.1598 31.3943 19.7958 34.0643 18.5668 35.6033C18.1562 36.0514 17.6468 36.3977 17.079 36.6145C16.5112 36.8313 15.9006 36.9127 15.2958 36.8523V36.8523ZM3.50481 31.0183C12.0838 35.8403 16.3758 36.0543 17.4468 34.7123C18.1968 33.7713 17.5638 31.7833 15.9758 30.0853C15.5029 29.6689 15.1294 29.1516 14.8832 28.5716C14.6369 27.9916 14.524 27.3637 14.5528 26.7343C14.5749 26.5644 14.6131 26.397 14.6668 26.2343C11.9798 26.7243 8.11681 28.3723 3.50481 31.0183Z" fill="#331A3A"/>
		<path d="M29.49 58.978C23.6576 58.978 17.9562 57.2485 13.1068 54.0082C8.25734 50.7679 4.47766 46.1624 2.24571 40.774C0.0137589 35.3856 -0.570229 29.4563 0.567611 23.736C1.70545 18.0157 4.51401 12.7612 8.63812 8.63713C12.7622 4.51302 18.0167 1.70447 23.737 0.566634C29.4573 -0.571205 35.3865 0.0127823 40.7749 2.24474C46.1634 4.47669 50.7689 8.25638 54.0092 13.1058C57.2495 17.9553 58.979 23.6567 58.979 29.489C58.9703 37.3073 55.8606 44.8029 50.3322 50.3313C44.8038 55.8596 37.3083 58.9693 29.49 58.978ZM29.49 1.47801C23.9509 1.47821 18.5363 3.12094 13.9309 6.19844C9.32541 9.27594 5.73596 13.65 3.61644 18.7675C1.49691 23.885 0.942503 29.5161 2.02331 34.9487C3.10413 40.3813 5.77161 45.3714 9.68846 49.2879C13.6053 53.2045 18.5956 55.8716 24.0283 56.9521C29.4609 58.0325 35.092 57.4777 40.2094 55.3578C45.3267 53.2379 49.7005 49.6482 52.7777 45.0425C55.8549 40.4368 57.4972 35.0221 57.497 29.483C57.4875 22.0586 54.5335 14.941 49.2831 9.69173C44.0326 4.44241 36.9144 1.48995 29.49 1.48201V1.47801Z" fill="#331A3A"/>
	</g>
	<defs>
		<clipPath id="clip0_1103_20">
			<rect width="58.978" height="58.978" fill="white"/>
		</clipPath>
	</defs>
</svg>